# xmcd CD database file
#
# Track frame offsets:
#	150
#	28216
#	60706
#	94930
#	138423
#	183256
#	209138
#
# Disc length: 3359 seconds
#
# Revision: 0
# Processed by: cddbd v1.5.2PL0 Copyright (c) Steve Scherf et al.
# Submitted via: CDex 1.51
#
DISCID=690d1d07
DTITLE=Dan Gibson - Zen Relaxation
DYEAR=2006
DGENRE=New Age
TTITLE0=Inner Journey
TTITLE1=Serenity In Sand And Stone
TTITLE2=Flowing Chi
TTITLE3=Symmetry
TTITLE4=Peace And Compassion
TTITLE5=Breathe
TTITLE6=Earth In Balance
EXTD=YEAR: 2006
EXTT0=
EXTT1=
EXTT2=
EXTT3=
EXTT4=
EXTT5=
EXTT6=
PLAYORDER=
